<svg id="unlimited_logo" data-name="unlimited logo" xmlns="http://www.w3.org/2000/svg" xmlns:xlink="http://www.w3.org/1999/xlink" viewBox="0 0 166 85">
  <defs>
    <style>
      .cls-1 {
        fill: none;
      }

      .cls-2 {
        fill: rgba(0,0,0,0);
      }

      .cls-3 {
        clip-path: url(#clip-path);
      }

      .cls-4 {
        fill: #fffffe;
      }

      .cls-5 {
        fill: #f6bf35;
      }

      .cls-6 {
        fill: #fff;
      }
    </style>
    <clipPath id="clip-path">
      <path id="Clip_2" data-name="Clip 2" class="cls-1" d="M0,0H56.223V42.628H0Z"/>
    </clipPath>
  </defs>
  <rect id="unlimited_logo_background" data-name="unlimited logo background" class="cls-2" width="166" height="85"/>
  <g id="unlimited_logo-2" data-name="unlimited logo">
    <g id="pathé_logo_wit" data-name="pathé logo wit">
      <rect id="pathé_logo_wit_background" data-name="pathé logo wit background" class="cls-2" width="56.311" height="42.82"/>
      <g id="p_std_b_c_c" transform="translate(0 0.178)">
        <g id="Group_5" data-name="Group 5">
          <path id="Clip_2-2" data-name="Clip 2" class="cls-1" d="M0,0H56.223V42.628H0Z"/>
          <g id="Group_5-2" data-name="Group 5" class="cls-3">
            <path id="Fill_1" data-name="Fill 1" class="cls-4" d="M5.656,12.684a0,0,0,0,1,0,0,.238.238,0,0,1,.049-.115.381.381,0,0,1,.18-.143l.028-.022,0,0c.01-.009.03-.026.123-.038,0,0,.009-.021.056-.042a.345.345,0,0,0,.062-.077.578.578,0,0,0,.007-.077.041.041,0,0,0-.025.023l0,0a.133.133,0,0,1-.1.074.218.218,0,0,1-.052.007c-.058,0-.1-.024-.107-.065,0,0,0-.015-.014-.015h0a.164.164,0,0,0-.089.075c-.007.014-.015.023-.024.023a.015.015,0,0,1-.012-.006.079.079,0,0,1,0-.062.244.244,0,0,1,.175-.183l.014-.01a.2.2,0,0,0-.1-.035H5.814a.231.231,0,0,0-.185.115c-.052.085-.091.09-.122.094l-.013,0H5.482a.155.155,0,0,0-.114.057.129.129,0,0,1-.095.036.1.1,0,0,1-.09-.036H5.162a.883.883,0,0,0-.065.063c-.019.02-.054.053-.073.053a.011.011,0,0,1-.009,0,.05.05,0,0,1,0-.037.44.44,0,0,1,.172-.217l0-.016h0a.541.541,0,0,1,.063-.061l.007,0a.981.981,0,0,1,.154-.07.549.549,0,0,0,.1-.114.2.2,0,0,0,.01-.1h0s-.016,0-.04.021a.579.579,0,0,0-.053.048c-.012.012-.025.025-.043.041,0,0-.034.007-.043.021a.167.167,0,0,1-.033.055l0,0a.194.194,0,0,1-.13.042H5.149a.1.1,0,0,1-.075-.032.062.062,0,0,1-.014-.041.118.118,0,0,0-.094.064C4.955,12,4.945,12,4.938,12a.016.016,0,0,1-.013-.009.116.116,0,0,1,0-.1.21.21,0,0,1,.169-.143l.013-.008.018-.016.027-.008.023-.01.026-.016.033-.027.032-.019a.742.742,0,0,0,.074-.068c.015-.017.042-.044.043-.046v-.017s.036-.024.041-.037a.027.027,0,0,0,0-.008c0-.011,0-.024.053-.051,0-.009.006-.054.044-.058s.039-.107.037-.138a.026.026,0,0,0-.006-.016c0-.006-.009-.011,0-.037a.04.04,0,0,0,0-.025.011.011,0,0,0-.008,0,.005.005,0,0,1,0,0c-.005-.009.01-.038.01-.039s-.041-.135-.075-.241l-.007-.021A6.739,6.739,0,0,0,5.2,10.05a1.4,1.4,0,0,1-.087-.379A.754.754,0,0,1,4.954,9.4a.869.869,0,0,1,.031-.307l-.01-.057s-.038-.062-.058-.062a.009.009,0,0,0-.008,0,.219.219,0,0,1-.077.052.015.015,0,0,1-.009,0c-.012,0-.034-.014-.052-.107l-.051.021V8.914l-.026.016-.051-.021s.056-.037.051-.067S4.67,8.814,4.649,8.8,4.6,8.769,4.6,8.748a.107.107,0,0,1-.1.051l-.057.022h0a.017.017,0,0,1-.013-.007c-.013-.015-.026-.063-.008-.2a.158.158,0,0,0-.094-.038l-.019,0a.677.677,0,0,1-.077.01V8.519l-.031-.026-.015-.051h0l-.006,0c-.1-.056-.13-.074-.138-.08l.036-.027L4.032,8.3l-.062-.079-.03.031-.052-.061-.026-.007-.056-.024L3.746,8.11,3.72,8.073l-.072.021.01-.036L3.6,8.042l.021-.036L3.578,8,3.5,7.918l.01-.031-.035,0-.036-.046L3.4,7.871l-.051-.036L3.28,7.829,3.3,7.8a.541.541,0,0,0-.128-.109.047.047,0,0,0,.014-.035.055.055,0,0,0-.029-.039.828.828,0,0,1-.225-.273l-.062-.078L2.835,7.3l.019-.081-.025,0-.056-.027-.082-.054a.6.6,0,0,0-.03-.1.091.091,0,0,0,0-.062.059.059,0,0,0-.035-.031.032.032,0,0,0,.006-.015A.036.036,0,0,0,2.622,6.9l0-.029-.014-.013L2.594,6.82l-.028-.029-.036.026L2.479,6.78l-.071-.005.015-.031a.587.587,0,0,0-.128-.11.091.091,0,0,0,.014-.06.059.059,0,0,0-.028-.038.029.029,0,0,0,.008-.012.037.037,0,0,0-.005-.031l0-.027-.011-.016V6.416A.276.276,0,0,1,2.2,6.325l.04.019,0-.035.023.039,0-.035.016.024a.123.123,0,0,0-.02-.142S2.19,6.151,2.181,6.1A.064.064,0,0,1,2.2,6.047a.145.145,0,0,0-.01-.133s0-.048-.112-.063a.155.155,0,0,1-.12-.063.1.1,0,0,1-.01-.083.094.094,0,0,0,0-.081.072.072,0,0,0-.06-.028A.593.593,0,0,1,1.79,5.43c-.017-.067.007-.08.007-.08a.077.077,0,0,1,.048-.067.073.073,0,0,1,.019-.058.142.142,0,0,0-.094-.043.111.111,0,0,0-.027,0l-.307.074h0l.006-.018-.01,0c-.026.009-.106.035-.19.057a.36.36,0,0,1-.094.018c-.053,0-.078-.031-.086-.1l.055-.037L1.11,5.17l-.029,0,0-.019H1.046c0-.006,0-.026.054-.04.012,0,.035-.016.034-.022s-.01-.006-.028-.006H1.059c0-.006.015-.03.1-.078a.063.063,0,0,0,0-.045c-.009-.02-.018-.038-.019-.04l0,0a.237.237,0,0,1-.039.067h0c-.008,0-.019-.022-.035-.055s-.021-.044-.036-.07a.434.434,0,0,1-.016-.222c0-.013,0-.024,0-.031l-.011.01a.23.23,0,0,0-.063.1A.7.7,0,0,1,.909,4.8a.472.472,0,0,0-.031.074c-.018.061-.052.188-.054.193h0a.263.263,0,0,1-.056-.116A.588.588,0,0,1,.8,4.66a.718.718,0,0,0,.02-.1A1.149,1.149,0,0,1,.948,4.29l-.01-.016L.863,4.211l-.02-.046a.166.166,0,0,1,.086-.09L.9,4.085A.058.058,0,0,0,.87,4.077l-.012,0-.014.033L.822,4.106l-.015.041a.164.164,0,0,1-.043-.057S.7,4.15.635,4.231l-.016,0a.159.159,0,0,1-.042-.007.289.289,0,0,0,.031.026v.016A1.214,1.214,0,0,0,.332,4.7v0c.02.075.057.212.071.282L.4,4.978c-.02-.032-.074-.115-.1-.164a.2.2,0,0,0-.045.095l-.007.028a1.593,1.593,0,0,0-.056.449A2.329,2.329,0,0,0,.237,5.8l0,0,.14.3v.04h0a.982.982,0,0,1-.326-.514A1.851,1.851,0,0,1,.136,4.511a1.059,1.059,0,0,1,.1-.329A2.616,2.616,0,0,1,.707,3.168a1.9,1.9,0,0,1,.383-.4,1.593,1.593,0,0,1,.474-.239l.014,0a1.109,1.109,0,0,1,.158-.046,1.4,1.4,0,0,1,.244-.027L2.2,2.428a1.2,1.2,0,0,1,.384.133l.032.015.029-.032.053.079.006.018.054-.006a.155.155,0,0,1,.041.046.22.22,0,0,0,.044.052.1.1,0,0,0,.041.011.092.092,0,0,1,.043.013,1.721,1.721,0,0,1,.528.853A.868.868,0,0,0,3.68,3.8a.355.355,0,0,1,.036.027.267.267,0,0,0,.06.04l.012.006a.178.178,0,0,0,.027.011l.021.008a.223.223,0,0,0,.036.013.368.368,0,0,1,.228.155l.006.007.021.022a.288.288,0,0,1,.036.041.15.15,0,0,1,.014.027.167.167,0,0,0,.011.023A.133.133,0,0,0,4.2,4.2a.112.112,0,0,1,.015.019l.009.019c.006.014.014.03.019.039a.474.474,0,0,1,.041.107c.115-.053.231-.115.343-.174s.212-.112.3-.149a4.117,4.117,0,0,1,.451-.163L5.5,3.857c.15-.049.3-.089.487-.132a1.617,1.617,0,0,0,.324-.106,1.6,1.6,0,0,0,.631-.384,3.338,3.338,0,0,0,.273-.387.714.714,0,0,0,.048-.1c.007-.019.015-.036.021-.049a2.56,2.56,0,0,1,.141-.244c.033-.053.067-.108.1-.168a.911.911,0,0,1,.057-.08c.019-.025.039-.051.053-.074a2.763,2.763,0,0,1,.2-.28A.336.336,0,0,0,7.86,1.79a.322.322,0,0,1,.032-.063A2.335,2.335,0,0,1,8.7,1.052s.027-.02.016-.043h0A1.052,1.052,0,0,1,8.467.977C8.422.964,8.421.952,8.42.942s0-.018-.067-.019S8.26.841,8.259.8C8.252.8,8.214.766,8.223.732A.176.176,0,0,1,8.237.688h0A.349.349,0,0,1,8.165.561.069.069,0,0,1,8.176.5.109.109,0,0,1,8.264.463a.173.173,0,0,1,.059.011A.027.027,0,0,0,8.346.461c.008-.015,0-.041-.02-.076C8.272.3,8.3.275,8.309.263l0,0A.174.174,0,0,1,8.375.3a.535.535,0,0,0,.05.037c.017.01.031.017.047.025s.053.027.11.06a.166.166,0,0,0,.082.035h.008A.059.059,0,0,0,8.725.435C8.733.42,8.728.4,8.71.375A2.105,2.105,0,0,1,8.563.151a.08.08,0,0,1-.01-.064A.012.012,0,0,1,8.564.081.05.05,0,0,1,8.593.1l.03.025a1.317,1.317,0,0,1,.111.1l.027.03c.047.054.119.135.158.135h0c.022,0,.033-.006.038-.015s0-.033-.015-.075C8.936.281,8.931.269,8.927.259a.234.234,0,0,0-.072-.1C8.787.088,8.762.033,8.787.007A.018.018,0,0,1,8.8,0c.009,0,.017.01.028.023a.216.216,0,0,0,.047.045l.01.006a.269.269,0,0,1,.109.1.23.23,0,0,1,.1.1c.047.068.078.1.1.1H9.2A.029.029,0,0,0,9.228.359C9.239.341,9.234.3,9.211.238A.6.6,0,0,0,9.14.1C9.12.072,9.108.054,9.114.03a.01.01,0,0,1,.01-.009c.037,0,.163.126.205.191A.248.248,0,0,1,9.366.3a.073.073,0,0,0,.022.049.042.042,0,0,0,.024.009.022.022,0,0,0,.02-.01.032.032,0,0,0,0-.031A.242.242,0,0,1,9.417.284.219.219,0,0,0,9.341.16C9.312.14,9.305.12,9.308.109A.017.017,0,0,1,9.326.1a.06.06,0,0,1,.037.017.167.167,0,0,0,.054.034A.058.058,0,0,1,9.45.175.074.074,0,0,0,9.481.2c.036.018.1.049.16.2A.016.016,0,0,0,9.651.4c.009,0,.017-.01.025-.03A.222.222,0,0,0,9.686.31c0-.024,0-.041.016-.043s.023.042.034.1a1.342,1.342,0,0,0,.04.16l.062.047a.15.15,0,0,1,.108.048l.036.012h.005c.008,0,.024.008.039.058a.031.031,0,0,0,.034.026c.011,0,.02,0,.024.016a.079.079,0,0,1-.007.054.24.24,0,0,0-.014.05.046.046,0,0,0,.008.038.055.055,0,0,0,.037.017A.014.014,0,0,1,10.115.9a.074.074,0,0,1-.007.053A.081.081,0,0,0,10.1,1a.035.035,0,0,1-.009.037l.02.02a.219.219,0,0,1,.123.058.33.33,0,0,1,.139.186c.006.023.007.037,0,.043a.012.012,0,0,1-.01,0l-.016,0-.019,0-.011,0a.212.212,0,0,1-.1.022H10.2a.588.588,0,0,1-.063,0l-.026,0H10.1a.044.044,0,0,0-.032.017.216.216,0,0,1-.022.02.082.082,0,0,0-.032.041.061.061,0,0,1,.052.036c.02.037.017.046.017.046s.086.03.142.21c.06.2.022.261.022.262a.372.372,0,0,1-.062.283.078.078,0,0,1-.012.053.091.091,0,0,1-.062.035.12.12,0,0,0-.043.046.407.407,0,0,1-.087.082L9.72,2.58l-.168.039a.037.037,0,0,0-.02.022.092.092,0,0,0,.017.074l.045.075a2.933,2.933,0,0,1,.252.489c.015.081.039.167.064.258a1.446,1.446,0,0,1,.081.64c-.017.094-.031.165-.043.222a.965.965,0,0,0-.028.181.376.376,0,0,1-.031.168.347.347,0,0,1-.042.176c0,.01,0,.1-.031.126-.017.012-.016.035-.015.057s0,.055-.032.059l.01.034s-.085.283-.132.445a1.907,1.907,0,0,1-.275.529l-.031.013.006.033s-.109.084-.246.2a2.139,2.139,0,0,0-.173.173,1.228,1.228,0,0,1-.145.142s-.374.3-.5.43a1.28,1.28,0,0,0-.013.211l-.025-.015v.1A.086.086,0,0,1,8.2,7.393a.271.271,0,0,0-.029.123.268.268,0,0,1-.054.14l-.029,0h0a.217.217,0,0,1-.041.084l-.005-.013-.023.041a.173.173,0,0,0,.005-.1.136.136,0,0,0-.042.077l-.026-.005,0-.067-.011.012c-.018.019-.056.059-.1.1,0,0-.015-.036-.029-.036s-.007,0-.01.009L7.8,7.826a.024.024,0,0,0-.022-.01c-.024,0-.072.021-.161.124l.018-.05L7.6,7.92a1.193,1.193,0,0,0-.156.071L7.5,7.911a1.184,1.184,0,0,0-.264.251c-.062.1-.064.12-.063.123l-.007.03-.019.053a1.213,1.213,0,0,0-.065.174l0,.1a.38.38,0,0,1-.021.079.189.189,0,0,0-.01.045.205.205,0,0,1-.031.1C7,8.881,6.988,8.9,6.97,8.9s-.029-.011-.044-.034l-.005.01a2.751,2.751,0,0,1-.16.271c-.015.02-.039.049-.068.082a1.116,1.116,0,0,0-.26.4.544.544,0,0,1-.064.175.3.3,0,0,0-.045.14v.015c-.007.116-.008.137-.04.177l.052.337c0,.005.107.536.141.622.012.031.029.105.049.191a2.321,2.321,0,0,0,.131.45,1.286,1.286,0,0,0,.194.021l.039,0A.793.793,0,0,1,7,11.751h.144a.4.4,0,0,1,.144-.022l.055,0a.02.02,0,0,1,.02-.011.141.141,0,0,1,.061.022.265.265,0,0,1,.077-.011.22.22,0,0,1,.193.106s.014.022.007.034a.017.017,0,0,1-.016.007.219.219,0,0,1-.08-.027.3.3,0,0,0-.049,0,.092.092,0,0,0-.053.012.119.119,0,0,1-.115.095H7.371c-.078,0-.084-.017-.084-.019h0a.153.153,0,0,1-.075.021.143.143,0,0,1-.068-.018.068.068,0,0,1-.054.038H7.08l.074.045a.148.148,0,0,1,.051-.007.321.321,0,0,1,.108.021.266.266,0,0,0,.091.013,1.215,1.215,0,0,0,.223-.03l.066-.012.037.015H7.8l.026.018a.392.392,0,0,1,.1-.012.231.231,0,0,1,.155.05c.057.05.086.084.081.1s-.007.007-.016.007a.156.156,0,0,1-.042-.008.415.415,0,0,0-.114-.02.121.121,0,0,0-.086.028.025.025,0,0,1,0,.021c-.007.013-.028.031-.092.039a.49.49,0,0,1-.061,0,.119.119,0,0,1-.034,0h0l-.012,0-.017,0,0,.008a.446.446,0,0,1,.209.084c.061.05.131.116.122.145,0,.008-.011.013-.026.014H7.977a.162.162,0,0,1-.09-.041.213.213,0,0,0-.09-.044.145.145,0,0,0-.043.054c-.01.021-.063.028-.106.028a.256.256,0,0,1-.106-.018.216.216,0,0,0-.1-.028.214.214,0,0,0-.092.023.118.118,0,0,1-.048.007,1.07,1.07,0,0,1-.162-.019l-.182-.009s-.118-.034-.16-.04c-.026,0-.141,0-.189,0-.083,0-.166,0-.185,0a.027.027,0,0,1,0,.023c0,.013-.022.033-.082.048l-.059.04H6.22a.208.208,0,0,1-.159.054.075.075,0,0,0-.045.038.4.4,0,0,1-.105.017.151.151,0,0,1-.054-.008.048.048,0,0,1-.028-.028c0-.007-.006-.013-.013-.013a.029.029,0,0,0-.015.007s-.083.056-.134.093A.023.023,0,0,1,5.656,12.684Zm.043-2.7h0l-.03.025c0,.005.182.743.235.924a1.607,1.607,0,0,0,.072.2.872.872,0,0,1,.044.119.278.278,0,0,1,.1.109l0-.015c-.009-.038-.037-.156-.075-.339a5.229,5.229,0,0,0-.2-.775A1.223,1.223,0,0,1,5.7,9.989Z" transform="translate(0 29.958)"/>
            <path id="Fill_3" data-name="Fill 3" class="cls-5" d="M29.9,24.6c-.343.035-1.282-.952-1.426-2.317-.1-.93.348-10.891.281-11.512A3.887,3.887,0,0,1,30.2,8.036,3.9,3.9,0,0,1,32.144,7.5a11.455,11.455,0,0,0-.511-1.187v0A6.476,6.476,0,0,1,28.9,5.965c-.851-.486-.476-.692-.135-.933s1.049-.069,2.057.143l.092.09c-3-3.3-9.262-5.138-14.305-5.259a27.419,27.419,0,0,0-7.4.9c-.914.28-4.95,1.169-7.262,4.576A11.052,11.052,0,0,0,.472,15a26.233,26.233,0,0,0,4.537,8.4C6.277,25.19,8.2,26.649,6.857,28.236s-2.546,2.755-2.546,2.755l4.659-2.027a25.722,25.722,0,0,0,3.595,2.872,10.94,10.94,0,0,0,4.992,1.389c1.837-.032,6.514-1.448,10.255-5.683a30.928,30.928,0,0,0,2.479-3.16c-.178.258-.167.19-.39.214" transform="translate(6.925 0)"/>
            <path id="Fill_4" data-name="Fill 4" class="cls-5" d="M18.908,3.094A4.756,4.756,0,0,0,16.7.449a4.743,4.743,0,0,0-5.349.953,37.112,37.112,0,0,0-3.71,5.583A6.161,6.161,0,0,1,6.9,8.091L3.881,8.11s-.309-1.856-.828-3.892c-.3-.108-2-.655-2.169.9C.71,6.742.435,7.076,1.491,7.492S3.568,8.569,2.816,9.328a3.72,3.72,0,0,1-1.982.886c-.375.137-.921.516-.823,2.244s.408,1.748.919,2.094c.4.27,1.091.453.95,1.178a24.792,24.792,0,0,0,2.027-7.4A27.608,27.608,0,0,1,6.937,9.8c.52.4,1.073-.025,1.24,2.823s.177,5.6,1.166,6.352,3.049,1.434,4.991-.945A21.646,21.646,0,0,0,17.3,13.4a35.508,35.508,0,0,0,1.6-3.927,11,11,0,0,0,.01-6.379" transform="translate(36.845 6.019)"/>
          </g>
        </g>
        <path id="Fill_6" data-name="Fill 6" class="cls-4" d="M8.314,3.114a4.837,4.837,0,0,0-2.1-2.79C2.8-1.1.229,2.614.149,2.825a2.684,2.684,0,0,0-.012,1.75A64.411,64.411,0,0,0,4.774,16.2c1.855,3.3,1.28-1.247.747-4.061C5.17,10.287,4.875,8.2,4.875,8.2A21.875,21.875,0,0,0,7.237,6.678c1.422-1.03,1.2-2.407,1.078-3.564" transform="translate(7.76 6.743)"/>
        <path id="Fill_7" data-name="Fill 7" class="cls-4" d="M2.581.65C2.3,1,1.271,1.61.779,5.8S.163,10.128.052,12.772c-.114,2.705-.094,5.191.6,5.408s.8-.8.881-1.687.233-1.388.7-3.76.848-3.869,1.546-4.006c1.362-.27,1.23,2.194,1.438,3.261a36.134,36.134,0,0,0,1.03,4.661c1.3,3.132,1.71.3,1.761-.908A96.718,96.718,0,0,0,6.771,4.765C6.074.49,3.893-.984,2.581.65" transform="translate(15.856 7.056)"/>
        <path id="Fill_8" data-name="Fill 8" class="cls-4" d="M12.018,1.886c.415-.43.452-1.1-1.277-1.433A27.123,27.123,0,0,0,2.39.218C1.282.367.294.772.094,1.269a1,1,0,0,0,.942,1.44,10.3,10.3,0,0,1,2.1.356c1.179.327,1.713,1.24,2.054,3.38.41,2.562.757,11.024.838,12.95a32.166,32.166,0,0,0,.34,3.564c.355,1.637.977,1.732,1.325.725s.269-5.895.191-8.488.034-6.871-.023-8.972c-.049-1.8.378-2.934,1.354-3.529s2.258-.246,2.8-.808" transform="translate(19.061 3.083)"/>
        <path id="Fill_9" data-name="Fill 9" class="cls-4" d="M5.774.6c-.988-.313-1.331.481-1.537,1.448a29.032,29.032,0,0,0-.387,5.391c.1,1.384.1,2.766-.893,2.694S2.109,9.512,2.146,7.1c.037-2.337.942-7.14-.462-7.1A1.315,1.315,0,0,0,.622.911,10.273,10.273,0,0,0,.24,5.25C.4,8.051.226,11.784.223,13.166S.04,18.627,0,19.8.209,23.458,1.3,21.153a18.511,18.511,0,0,0,.726-4.388,24.894,24.894,0,0,1,.451-3.386c.275-.933,1.024-1.919,1.262-.446.135.83-.378,4.023-.36,4.979.033,1.723.152,3.743.491,4.134.967,1.116,1.281-.33,1.419-.987s.35-3.939.386-4.976.71-12.109.78-13.409C6.486,2.016,6.761.911,5.774.6" transform="translate(28.506 6.087)"/>
        <path id="Fill_10" data-name="Fill 10" class="cls-4" d="M2.39,13.07c-.511-.347-.82-.366-.919-2.094s.448-2.107.823-2.244a3.72,3.72,0,0,0,1.982-.886c.752-.759-.27-1.418-1.326-1.836s-.781-.751-.606-2.376c.166-1.554,1.87-1.007,2.169-.9A27.878,27.878,0,0,0,3.683,0,3.9,3.9,0,0,0,1.741.535,3.887,3.887,0,0,0,.3,3.266c.067.622-.38,10.582-.281,11.512C.159,16.143,1.1,17.13,1.441,17.1c.224-.024.213.044.39-.214A20.117,20.117,0,0,0,3.34,14.249c.141-.726-.552-.908-.95-1.178" transform="translate(35.386 7.501)"/>
        <path id="Fill_11" data-name="Fill 11" class="cls-4" d="M2.39,13.07c-.511-.347-.82-.366-.919-2.094s.448-2.107.823-2.244a3.72,3.72,0,0,0,1.982-.886c.752-.759-.27-1.418-1.326-1.836s-.781-.751-.606-2.376c.166-1.554,1.87-1.007,2.169-.9A27.878,27.878,0,0,0,3.683,0,3.9,3.9,0,0,0,1.741.535,3.887,3.887,0,0,0,.3,3.266c.067.622-.38,10.582-.281,11.512C.159,16.143,1.1,17.13,1.441,17.1c.224-.024.213.044.39-.214A20.117,20.117,0,0,0,3.34,14.249c.141-.726-.552-.908-.95-1.178" transform="translate(35.386 7.501)"/>
        <path id="Fill_12" data-name="Fill 12" class="cls-4" d="M.281.708C-.366,1.87.2,2.37.985,2.752a1.056,1.056,0,0,0,1.475-.5A1.718,1.718,0,0,0,2.8.921,1.4,1.4,0,0,0,.281.708" transform="translate(46.96 21.987)"/>
        <path id="Fill_13" data-name="Fill 13" class="cls-4" d="M4.5.335C3.049-.23,2.381-.056,1.726.676A16.1,16.1,0,0,0,.243,5.6C.116,6.521,0,11.477,0,11.477s-.04,3.132,1.115,1.538a33.4,33.4,0,0,0,2.3-4.49c.5-1.233,1.91-4.043,1.975-5.043S5.952.9,4.5.335" transform="translate(48.454 7.685)"/>
        <path id="Fill_14" data-name="Fill 14" class="cls-4" d="M.384.118c-.341.241-.717.447.135.933A6.476,6.476,0,0,0,3.258,1.4v0A4.368,4.368,0,0,0,2.724.566C2.663.494,2.6.414,2.535.343,2.48.288,2.451.257,2.451.257,1.443.046.726-.123.384.118" transform="translate(35.301 4.913)"/>
        <path id="Fill_15" data-name="Fill 15" class="cls-4" d="M.384.118c-.341.241-.717.447.135.933A6.476,6.476,0,0,0,3.258,1.4v0A4.368,4.368,0,0,0,2.724.566C2.663.494,2.6.414,2.535.343,2.48.288,2.451.257,2.451.257,1.443.046.726-.123.384.118" transform="translate(35.301 4.913)"/>
        <path id="Fill_16" data-name="Fill 16" class="cls-5" d="M.042,2.087c-.377,1.9,1.9.851,2.027.521A3.743,3.743,0,0,0,1.18.224C.446-.7.158,1.506.042,2.087" transform="translate(18.756 10.449)"/>
        <path id="Fill_17" data-name="Fill 17" class="cls-5" d="M1.763.322C1.264-.085.578-.145.3.366S-.354,1.432.707,3.091c.254.4,1.656-.384,1.68-1.109A2.2,2.2,0,0,0,1.763.322" transform="translate(10.853 9.443)"/>
      </g>
    </g>
    <path id="unlimited" class="cls-6" d="M8.024,30.915a10.007,10.007,0,0,1-3.356-.531,6.766,6.766,0,0,1-2.524-1.56,6.779,6.779,0,0,1-1.59-2.542A10.264,10.264,0,0,1,0,22.806V0H5.237V23.017a3.84,3.84,0,0,0,.681,2.508,2.557,2.557,0,0,0,2.106.829,2.557,2.557,0,0,0,2.106-.829,3.84,3.84,0,0,0,.681-2.508V0h5.237V22.806a10.264,10.264,0,0,1-.553,3.476,6.566,6.566,0,0,1-4.115,4.1A10.007,10.007,0,0,1,8.024,30.915Zm83.368-.422H86.831V6.673h-.084l-4.73,23.82H79.483l-4.73-23.82h-.084v23.82H70.107V0h6.884l3.717,17.822h.084L84.509,0h6.884V30.492Zm-54.227,0H32.6L25.931,11.445h-.084V30.492h-4.73V0h4.857l6.377,17.442h.084V0h4.73V30.492Zm101.824,0H124.377V0H138.4V4.561h-8.785v7.855h6.757v4.561h-6.757v8.953h9.376v4.561Zm-83.537,0H41.98V0h5.237V25.931h8.235v4.561Zm95.447,0h-7.771V0H150.9a10.477,10.477,0,0,1,3.574.56,6.468,6.468,0,0,1,2.592,1.7,7.4,7.4,0,0,1,1.578,2.872,14.045,14.045,0,0,1,.533,4.076V21.286a14.045,14.045,0,0,1-.533,4.076,7.4,7.4,0,0,1-1.578,2.872,6.468,6.468,0,0,1-2.592,1.7A10.477,10.477,0,0,1,150.9,30.492ZM148.365,4.308V26.185h1.816c2.81,0,3.759-1.076,3.759-4.266V8.573c0-3.189-.948-4.266-3.759-4.266ZM116.226,30.492h-5.237V4.561h-5.068V0h15.373V4.561h-5.068Zm-14.064,0H96.925V0h5.237Zm-37.545,0H59.38V0h5.237Z" transform="translate(3.707 41.656)"/>
  </g>
</svg>
