<svg xmlns="http://www.w3.org/2000/svg" viewBox="0 0 1138.823 639.013">
  <defs>
    <style>
      .cls-1 {
        fill: none;
        stroke: #707070;
        stroke-miterlimit: 10;
        opacity: 0.578;
      }
    </style>
  </defs>
  <g id="pathe_bg_artwork" data-name="pathe bg artwork" transform="translate(0.5 0.513)">
    <path id="Fill_26" data-name="Fill 26" class="cls-1" d="M204.726,78.079c-3.035-28.984-39.9-64.96-51.61-69.951C68.833-27.562,5.639,65.529,3.668,70.825-1.347,84.252-1,93.086,3.382,114.706c8.647,42.64,68.887,209.432,114.166,291.392,45.688,82.7,31.519-31.264,18.381-101.8-8.647-46.381-15.9-98.606-15.9-98.606s23.183-12.431,58.163-38.257c35.02-25.825,29.621-60.349,26.537-89.358" transform="translate(0 91)"/>
    <path id="Fill_28" data-name="Fill 28" class="cls-1" d="M63.51,16.247C56.57,25.016,31.285,40.224,19.178,144.81,7.112,249.135,4.014,253.057,1.284,319.122c-2.8,67.589-2.3,129.7,14.747,135.128C33.108,459.7,35.74,434.371,37.7,412.111c1.946-22.269,5.731-34.682,17.134-93.956C66.208,258.889,75.7,221.488,92.882,218.063c33.525-6.758,30.271,54.822,35.372,81.476,4.692,24.524,15.426,92.265,25.342,116.453,32.1,78.261,42.076,7.558,43.327-22.7,1.259-30.2-13.161-167.428-30.312-274.244S95.8-24.588,63.51,16.247" transform="translate(199 100)"/>
    <path id="Fill_30" data-name="Fill 30" class="cls-1" d="M296.146,47.2c10.217-10.764,11.142-27.42-31.462-35.866C209.316.4,132.368-4.627,58.9,5.445,31.6,9.18,7.256,19.312,2.328,31.753c-6.5,16.395.418,33.607,23.226,36.027,28.2,2.992,35.687,4.366,51.766,8.91,29.055,8.176,42.212,31.036,50.619,84.587,10.119,64.113,18.65,275.88,20.664,324.07,1.163,27.9,5.166,74.169,8.375,89.173,8.752,40.958,24.078,43.343,32.666,18.131,8.539-25.069,6.623-147.511,4.7-212.391-1.9-64.9.835-171.948-.565-224.521-1.2-44.953,9.308-73.427,33.362-88.321,23.8-14.734,55.646-6.162,69.007-20.222" transform="translate(278)"/>
    <path id="Fill_32" data-name="Fill 32" class="cls-1" d="M142.735,14.947c-24.433-7.84-32.9,12.039-38,36.26C99.617,75.419,92.71,151.522,95.166,186.121c2.439,34.633,2.365,69.223-22.076,67.428C48.673,251.77,52.13,238.087,53.05,177.614,53.954,119.115,76.334-1.1,41.634.008,30.268.379,20.215,10.453,15.378,22.8c-3.4,8.641-13.494,38.553-9.445,108.62,4.074,70.1-.345,163.511-.419,198.11S.989,466.193.085,495.616c-.9,29.4,5.084,91.514,31.948,33.8,11.26-24.213,11.942-63.971,17.945-109.825,5.987-45.82,4.345-61.391,11.137-84.744,6.8-23.336,25.3-48.037,31.2-11.162,3.334,20.765-9.346,100.678-8.895,124.6.8,43.114,3.762,93.681,12.139,103.46,23.908,27.922,31.669-8.262,35.077-24.693s8.648-98.6,9.552-124.545S157.732,99.438,159.473,66.887c.879-16.431,7.671-44.092-16.738-51.941" transform="translate(510 76)"/>
    <path id="Fill_36" data-name="Fill 36" class="cls-1" d="M59.04,327.213c-12.62-8.677-20.268-9.158-22.7-52.427S47.4,222.021,56.66,218.6c9.281-3.449,30.385-3.179,48.946-22.179s-6.671-35.5-32.749-45.951-19.275-18.8-14.975-59.477c4.1-38.9,46.2-25.214,53.566-22.507C105.606,45.268,98.705,21.124,90.959,0,68.813,1.147,62.913,3.677,43,13.383,24.166,22.55,5.638,66.181,7.3,81.765,8.945,97.332-2.084,346.693.353,369.985,3.915,404.138,27.1,428.846,35.58,427.978c5.522-.6,5.26,1.113,9.642-5.346A504.2,504.2,0,0,0,82.5,356.711c3.479-18.164-13.638-22.727-23.46-29.5" transform="translate(681 111)"/>
    <path id="Fill_40" data-name="Fill 40" class="cls-1" d="M110.826,8.379C75.1-5.756,58.643-1.407,42.5,16.909,33.107,27.58,12.113,94.338,5.977,140.048,2.868,163.186,0,287.193,0,287.193s-.982,78.364,27.458,38.5c12.714-17.8,44.263-81.466,56.56-112.367,12.305-30.85,47.037-101.156,48.64-126.2s13.909-64.616-21.837-78.752" transform="translate(1002 115)"/>
    <path id="Fill_44" data-name="Fill 44" class="cls-1" d="M9.438,2.918C1.051,8.861-8.16,13.941,12.75,25.91,33.644,37.88,80,34.584,80,34.584l-.033-.066C75.774,26.3,71.417,19.254,66.9,13.941c-1.509-1.776-3.059-3.744-4.634-5.495C60.909,7.1,60.191,6.338,60.191,6.338,35.422,1.125,17.825-3.025,9.438,2.918" transform="translate(678 46)"/>
    <path id="Fill_46" data-name="Fill 46" class="cls-1" d="M1.047,52.287C-8.34,99.793,48.388,73.6,51.471,65.34,54,58.615,47.6,28.8,29.341,5.616,11.087-17.6,3.931,37.723,1.047,52.287" transform="translate(271 185)"/>
    <path id="Fill_48" data-name="Fill 48" class="cls-1" d="M7.383,9.173C.471,21.972-8.748,35.824,17.464,77.32c6.272,9.925,40.922-9.605,41.5-27.746.517-15.048-5.36-33.206-15.417-41.513C31.247-2.117,14.287-3.626,7.383,9.173Z" transform="translate(76 160)"/>
    <path id="Fill_38" data-name="Fill 38" class="cls-1" d="M7.013,17.876C-9.116,47.228,5.042,59.862,24.558,69.5s30.395-2.654,36.762-12.549c6.541-10.09,9.356-14.463,8.545-33.682C69.053,4.085,25.137-15.1,7.013,17.876" transform="translate(966 473)"/>
  </g>
</svg>
